<svg xmlns="http://www.w3.org/2000/svg" width="56" height="56" viewBox="0 0 56 56">
  <path fill="#FFF" fill-rule="evenodd" stroke="#FFF" stroke-width="2.4" d="M28,54.8 C42.8012313,54.8 54.8,42.8012313 54.8,28 C54.8,13.1987687 42.8012313,1.20000002 28,1.20000002 C13.1987687,1.20000002 1.20000002,13.1987687 1.20000002,28 C1.20000002,42.8012313 13.1987687,54.8 28,54.8 Z M22.0093689,17.8 L23.9906311,17.8 C25.2137416,17.8 26.2,18.7763701 26.2,19.9933977 L26.2,36.0066023 C26.2,37.2221464 25.2065542,38.2 23.9906311,38.2 L22.0093689,38.2 C20.7862584,38.2 19.8,37.2236299 19.8,36.0066023 L19.8,19.9933977 C19.8,18.7778536 20.7934458,17.8 22.0093689,17.8 Z M31.0093689,17.8 L32.9906311,17.8 C34.2137416,17.8 35.2,18.7763701 35.2,19.9933977 L35.2,36.0066023 C35.2,37.2221464 34.2065542,38.2 32.9906311,38.2 L31.0093689,38.2 C29.7862584,38.2 28.8,37.2236299 28.8,36.0066023 L28.8,19.9933977 C28.8,18.7778536 29.7934458,17.8 31.0093689,17.8 Z"/>
</svg>
